<svg xmlns="http://www.w3.org/2000/svg" xmlns:xlink="http://www.w3.org/1999/xlink" width="793" zoomAndPan="magnify" viewBox="0 0 595.5 842.249979" height="1122" preserveAspectRatio="xMidYMid meet" version="1.0"><defs><g/></defs><g fill="#8c52ff" fill-opacity="1"><g transform="translate(151.806421, 492.397229)"><g><path d="M 63.15625 -39.515625 C 62.5625 -41.390625 62.03125 -43.304688 61.5625 -45.265625 C 61.09375 -47.222656 60.664062 -49.097656 60.28125 -50.890625 C 59.894531 -52.679688 59.550781 -54.300781 59.25 -55.75 C 58.957031 -57.195312 58.6875 -58.347656 58.4375 -59.203125 C 58.257812 -58.347656 58 -57.109375 57.65625 -55.484375 C 57.320312 -53.867188 56.960938 -52.125 56.578125 -50.25 C 56.191406 -48.375 55.785156 -46.453125 55.359375 -44.484375 C 54.929688 -42.523438 54.460938 -40.738281 53.953125 -39.125 L 41.8125 0 L 24.8125 0 L 0.765625 -86.5625 L 21.734375 -86.5625 L 29.921875 -54.078125 C 30.429688 -52.117188 30.898438 -50.070312 31.328125 -47.9375 C 31.753906 -45.8125 32.179688 -43.660156 32.609375 -41.484375 C 33.035156 -39.316406 33.414062 -37.226562 33.75 -35.21875 C 34.09375 -33.21875 34.394531 -31.453125 34.65625 -29.921875 C 35.332031 -33.078125 36.160156 -36.890625 37.140625 -41.359375 C 38.117188 -45.835938 39.207031 -50.035156 40.40625 -53.953125 L 50.125 -86.5625 L 67.25 -86.5625 L 77.234375 -53.703125 C 78.679688 -49.015625 79.804688 -44.5625 80.609375 -40.34375 C 81.421875 -36.125 82.171875 -32.476562 82.859375 -29.40625 C 83.273438 -32.476562 83.820312 -36.101562 84.5 -40.28125 C 85.1875 -44.457031 86.128906 -48.972656 87.328125 -53.828125 L 95.390625 -86.5625 L 116.609375 -86.5625 L 92.5625 0 L 75.5625 0 Z M 63.15625 -39.515625 "/></g></g></g><g fill="#8c52ff" fill-opacity="1"><g transform="translate(274.165735, 492.397229)"><g><path d="M 22.890625 0.515625 C 18.023438 0.515625 14.101562 -0.738281 11.125 -3.25 C 8.144531 -5.769531 6.65625 -9.332031 6.65625 -13.9375 L 6.65625 -64.1875 L 26.84375 -64.1875 L 26.84375 -19.6875 C 26.84375 -17.726562 27.140625 -16.40625 27.734375 -15.71875 C 28.335938 -15.039062 29.238281 -14.703125 30.4375 -14.703125 C 31.113281 -14.703125 31.789062 -14.765625 32.46875 -14.890625 C 33.15625 -15.023438 33.582031 -15.132812 33.75 -15.21875 L 35.546875 -2.5625 C 35.460938 -2.46875 35.078125 -2.269531 34.390625 -1.96875 C 33.710938 -1.675781 32.816406 -1.335938 31.703125 -0.953125 C 30.597656 -0.578125 29.273438 -0.238281 27.734375 0.0625 C 26.203125 0.363281 24.585938 0.515625 22.890625 0.515625 Z M 17 -95 C 20.582031 -95 23.3125 -93.929688 25.1875 -91.796875 C 27.0625 -89.671875 28 -86.988281 28 -83.75 C 28 -80.425781 27.039062 -77.65625 25.125 -75.4375 C 23.207031 -73.21875 20.332031 -72.109375 16.5 -72.109375 C 12.914062 -72.109375 10.164062 -73.195312 8.25 -75.375 C 6.332031 -77.550781 5.375 -80.128906 5.375 -83.109375 C 5.375 -86.515625 6.351562 -89.347656 8.3125 -91.609375 C 10.269531 -93.867188 13.164062 -95 17 -95 Z M 17 -95 "/></g></g></g><g fill="#8c52ff" fill-opacity="1"><g transform="translate(316.358881, 492.397229)"><g><path d="M 44.234375 0 L 44.234375 -39.890625 C 44.234375 -42.878906 43.867188 -45.285156 43.140625 -47.109375 C 42.421875 -48.941406 41.082031 -49.859375 39.125 -49.859375 C 36.738281 -49.859375 34.519531 -48.300781 32.46875 -45.1875 C 30.425781 -42.082031 29.40625 -37.71875 29.40625 -32.09375 L 29.40625 0 L 9.203125 0 L 9.203125 -33.25 C 9.203125 -38.363281 8.835938 -42.601562 8.109375 -45.96875 C 7.390625 -49.332031 6.5625 -52.082031 5.625 -54.21875 C 4.601562 -56.601562 3.453125 -58.519531 2.171875 -59.96875 L 18.40625 -65.078125 C 19.175781 -64.222656 19.945312 -63.242188 20.71875 -62.140625 C 21.394531 -61.203125 22.050781 -59.988281 22.6875 -58.5 C 23.332031 -57.007812 23.867188 -55.320312 24.296875 -53.4375 C 26.515625 -57.445312 29.5625 -60.390625 33.4375 -62.265625 C 37.3125 -64.140625 41.550781 -65.078125 46.15625 -65.078125 C 52.800781 -65.078125 57.53125 -63.050781 60.34375 -59 C 63.15625 -54.957031 64.5625 -49.566406 64.5625 -42.828125 L 64.5625 0 Z M 44.234375 0 "/></g></g></g><g fill="#8c52ff" fill-opacity="1"><g transform="translate(393.32906, 492.397229)"><g><path d="M 1.28125 -63.671875 L 11.765625 -63.671875 L 13.9375 -76.84375 L 31.453125 -80.671875 L 31.453125 -63.671875 L 46.546875 -63.671875 L 44.109375 -48.84375 L 31.453125 -48.84375 L 31.453125 -20.328125 C 31.453125 -16.578125 33.410156 -14.703125 37.328125 -14.703125 C 39.460938 -14.703125 41.507812 -14.914062 43.46875 -15.34375 C 44.488281 -15.601562 45.515625 -15.859375 46.546875 -16.109375 L 50 -2.5625 C 48.289062 -1.957031 45.921875 -1.289062 42.890625 -0.5625 C 39.867188 0.15625 36.1875 0.515625 31.84375 0.515625 C 25.445312 0.515625 20.4375 -0.804688 16.8125 -3.453125 C 13.1875 -6.097656 11.375 -10.570312 11.375 -16.875 L 11.375 -48.84375 L 1.28125 -48.84375 Z M 1.28125 -63.671875 "/></g></g></g></svg>